<?xml version="1.0" encoding="utf-8"?>
<!-- Generator: Adobe Illustrator 23.0.2, SVG Export Plug-In . SVG Version: 6.00 Build 0)  -->
<svg version="1.1" id="Layer_1" xmlns="http://www.w3.org/2000/svg" xmlns:xlink="http://www.w3.org/1999/xlink" x="0px" y="0px"
	 viewBox="0 0 260.2 208.4" style="enable-background:new 0 0 260.2 208.4;" xml:space="preserve">
<path style="fill:#A8BFD0;" d="M248.1,100.5c-0.6,1.9-1.2,3.6,1.1,5.2c14.6,10.2,13.5,32.8,3.9,45.8c-8.8,11.9-21.1,18.6-36.3,16.3
	c-5.4-0.8-7.4,0.6-10.1,4.8c-9,14.1-22.1,21.6-39.1,21.7c-3,0-6-0.2-8.7-1.8c-5.3-3.2-9.2-1.9-14.2,2.1c-19.8,15.8-44.2,18.7-66,6
	c-4.4-2.6-7.9-6.1-11.3-9.8c-3.2-3.4-6.6-5-11.4-4.5C34.5,188.6,7.9,170.6,1.5,144c-6.4-26.6,9-51.7,28.6-60.9
	c4.8-2.3,9.3-5,14.9-5.3c4.2-0.2,7-3,9.7-6.2C63,61.5,72.3,52.6,84.3,47c5.4-2.5,11-4.7,17.1-5.1c3.9-0.3,8-0.7,10.9-4
	c16.7-1.1,31.5,4.6,44.3,14.6c9.2,7.2,18.3,12.2,30.6,11.4c10.6-0.7,19.2,5.7,25.9,13.1c6.2,6.9,13.1,11.8,21.8,14.8
	C239.9,93.6,244.8,95.8,248.1,100.5z"/>
<path style="fill:#F65500;" d="M248.1,100.5c-9.1-2.9-17.1-8.5-26.6-10.8c-2.6-0.6-4-3.4-5.5-5.6c-3.2-4.3-7.2-7.8-11.5-11
	c-6.7-5-13.8-7.9-22.3-6.6c-8,1.2-14.6-0.7-20.6-6.8c-11.7-11.8-26.7-17-42.7-19.7c-2.3-0.4-4.6-0.6-6.5-2.1
	C129.1,12.9,152-1,182.7,0.1c23.7,0.8,41.9,12.4,55.4,31.1c13.3,18.4,18,39.1,11.8,61.5C249.1,95.2,248.6,97.9,248.1,100.5z"/>
</svg>
