<svg version="1.1" id="Layer_1" xmlns="http://www.w3.org/2000/svg" xmlns:xlink="http://www.w3.org/1999/xlink" x="0px" y="0px" viewBox="0 0 260.2 205.9" style="enable-background:new 0 0 260.2 205.9;" xml:space="preserve">
<g>
	<path style="fill:#FEBC05;" d="M151.4,0c26.7,26.4,24.7,64.9,8.5,88.4c-15.2,21.9-47.1,38.2-82.6,24.9c5.3,10.7,12.4,19.4,21.4,26.5
		c16.9,13.2,36,18.8,57.3,16.6c42.7-4.4,74.1-42.9,69.8-85.7C221.4,26.9,184.5,0.6,151.4,0z"/>
</g>
<path style="fill:#A8BFD0;" d="M248.1,98c-0.6,1.9-1.2,3.6,1.1,5.2c14.6,10.2,13.5,32.8,3.9,45.8c-8.8,11.9-21.1,18.6-36.3,16.3
	c-5.4-0.8-7.4,0.6-10.1,4.8c-9,14.1-22.1,21.6-39.1,21.7c-3,0-6-0.2-8.7-1.8c-5.3-3.2-9.2-1.9-14.2,2.1c-19.8,15.8-44.2,18.7-66,6
	c-4.4-2.6-7.9-6.1-11.3-9.8c-3.2-3.4-6.6-5-11.4-4.5c-21.5,2.4-48.1-15.6-54.5-42.2c-6.4-26.6,9-51.7,28.6-60.9
	c4.8-2.3,9.3-5,14.9-5.3c4.2-0.2,7-3,9.7-6.2c8.3-10.1,17.7-19,29.7-24.6c5.4-2.5,11-4.7,17.1-5.1c3.9-0.3,8-0.7,10.9-4
	c16.7-1.1,31.5,4.6,44.3,14.6c9.2,7.2,18.3,12.2,30.6,11.4c10.6-0.7,19.2,5.7,25.9,13.1c6.2,6.9,13.1,11.8,21.8,14.8
	C239.9,91.1,244.8,93.4,248.1,98z"/>
</svg>
