<?xml version="1.0" encoding="utf-8"?>
<!-- Generator: Adobe Illustrator 23.0.2, SVG Export Plug-In . SVG Version: 6.00 Build 0)  -->
<svg version="1.1" id="Layer_1" xmlns="http://www.w3.org/2000/svg" xmlns:xlink="http://www.w3.org/1999/xlink" x="0px" y="0px"
	 viewBox="0 0 322.2 185.1" style="enable-background:new 0 0 322.2 185.1;" xml:space="preserve">
<path style="fill:#A6BDCC;" d="M253.8,132.5c-5,2.6-10,5.2-15.1,7.7c-6.4,3.1-13,5.2-20.2,4.4c-5.4-0.6-9,0.7-12.3,5.9
	c-6.9,10.9-17.7,16.8-30.1,19.7c-5.3,1.3-10.7,0.6-15.6-1.6c-6.5-2.9-11.3-1.7-17,3.2c-16.2,13.9-34.9,16.9-54.9,9.2
	c-7.8-3-14.9-7.4-20.8-13.5c-3.5-3.6-7.4-4.9-12.4-4.9c-31.7,0-52.1-23.6-55.1-50.2C-2,91.6,8.7,75.3,25.1,63
	c6.4-4.8,13.6-8.4,22-8.6c3.4-0.1,5.9-1.5,7.4-4.2c3.4-5.9,8.3-10.4,13.3-14.8c18.6-16.7,40-22.9,64.5-15.7
	c4.4,1.3,8.6,3.7,13.5,2.9c7.3,0.3,10.7,6.2,15.1,10.5c4.6,4.5,9.1,6.3,15.9,5.9c15.1-1,28,5.3,38.1,16.3
	c4.9,5.3,10.2,9.3,17.1,11.4c2.5,0.8,4.9,2,7.3,3.3C264.2,84,270,109,253.8,132.5z"/>
<path style="fill:#8CA8BC;" d="M253.8,132.5c-1-5.4,3.4-9,4.6-13.9c5.1-22.1-3-39.3-23.8-48c-3-1.3-6-3.1-9.2-3.6c-4-0.6-6.2-2.6-8.5-5.8
	c-8.7-11.9-21.2-17.6-35.3-20.2c-1.3-0.2-2.8-0.4-3.9,0.1c-7.9,3.9-13,0-18.2-5.6c-4.2-4.6-9.1-8.6-13.7-12.9
	c24.6-29.9,65.7-28.7,90.2-5.1c4.3,4.2,8.3,5.4,14,4.9c14.2-1.3,25.2,5.2,33.5,16.1c2.9,3.8,5.6,5.5,10.3,6.4
	c18,3.2,29.8,19.7,28.2,37.9c-1.2,13.8-16.9,31.3-37,28.4c-4.9-0.7-7.2,0.6-9.8,4.4C269.9,123.4,263.2,129.8,253.8,132.5z"/>
</svg>
