<?xml version="1.0" encoding="utf-8"?>
<!-- Generator: Adobe Illustrator 23.0.2, SVG Export Plug-In . SVG Version: 6.00 Build 0)  -->
<svg version="1.1" id="Layer_1" xmlns="http://www.w3.org/2000/svg" xmlns:xlink="http://www.w3.org/1999/xlink" x="0px" y="0px"
	 viewBox="0 0 143.6 186.9" style="enable-background:new 0 0 143.6 186.9;" xml:space="preserve">
<path style="fill:#4690C9;" d="M32.8,66.4c1.7,0.9,2.4,2.3,3.1,3.9c7.8,17.6,15.6,35.2,23.3,52.8c5.7,13,6.8,26.3,2.3,39.8
	c-3.4,10.4-10.7,17.4-20.4,21.9c-7.2,3.3-14.3,2.7-20.9-1.6C4.4,172.9-1.8,157.3,0.4,138.6c0.4-3.6,1.7-7.1,3.1-10.5
	c7.6-18.1,14.9-36.2,23.8-53.7C28.8,71.4,29.9,68.2,32.8,66.4z"/>
<path style="fill:#4893CC;" d="M118.5,60.2c3,0.3,3.6,2.1,4.3,3.4c6.2,12.5,12.3,25,18.5,37.5c6.4,12.9-1.2,30.2-14.3,35.9
	c-6.5,2.8-12.3,2.1-18-1.5c-11.1-7-16.4-21-11.2-33.1C104.1,88,111.7,74.1,118.5,60.2z"/>
<path style="fill:#4B94CE;" d="M76.9,0C84.1,14.1,91,25.8,95.2,38.8C98,47.7,89.5,60.5,80.3,63c-3.4,0.9-6.6,0.2-9.6-1.4
	C61.1,56.7,56.4,46,59.8,35.7C63.7,23.7,70.6,13.2,76.9,0z"/>
</svg>
