<?xml version="1.0" encoding="utf-8"?>
<!-- Generator: Adobe Illustrator 23.0.2, SVG Export Plug-In . SVG Version: 6.00 Build 0)  -->
<svg version="1.1" id="Layer_1" xmlns="http://www.w3.org/2000/svg" xmlns:xlink="http://www.w3.org/1999/xlink" x="0px" y="0px"
	 viewBox="0 0 260.8 215.9" style="enable-background:new 0 0 260.8 215.9;" xml:space="preserve">
<g>
	<path style="fill:#A4BCCD;" d="M221.1,127.2c-7.4-1.7-11.8,1.3-15.9,7.7c-7.7,11.9-19.9,17.2-33.5,19.1c-5.2,0.7-10.3-0.8-14.9-3
		c-4-2-6.8-1.2-10.2,1.8c-14.6,12.8-31.4,18.2-50.7,13.8c-11.1-2.5-20.8-7.9-28.5-16.5c-2.7-3-5.6-4.1-9.6-4
		c-12.7,0.2-24.7-2.8-35.7-9c-6.7-3.7-11.3-9.6-14.2-16.7c-2.8-6.9-6-13.5-7.2-21.1c-4.5-27.4,15.6-56.9,47-62
		c3.4-0.5,5.3-2.2,7.1-4.6C65.1,18.4,78,7.7,95.3,2.7c23-6.6,43.2-0.7,61.8,13.1c3.6,2.7,7.1,5.6,9.9,9.1c2,2.5,4.6,2.8,7.2,1.9
		c12.4-4,22.9,0.7,32.5,7.8c5,3.7,9.8,8.1,12.1,14.3c0.7,2,2.2,2.1,4,2.3c20.3,1.9,35.1,15,37.7,35c1.7,13.2-4.4,24.1-14.2,32.5
		C239.2,124.7,231,128.9,221.1,127.2z"/>
	<path style="fill:#DDE2F0;" d="M167.9,181.8c0,7.8-6.5,14.4-14.1,14.2c-7.8-0.2-13.9-6.8-13.9-15c0-7.6,7.4-14.9,14.9-14.9
		C162.1,166.1,168,173.1,167.9,181.8z"/>
	<path style="fill:#DAE0E9;" d="M235.9,143.7c0,7-6.5,14.4-12.5,14.3c-8.5,0-16.4-6.9-16.1-14c0.3-7.3,8.9-15,16.5-15
		C230.5,129.1,236,135.6,235.9,143.7z"/>
	<path style="fill:#DCE4F3;" d="M80.6,215.9c-5.6,0.1-11.6-6.1-11.7-12.2c-0.1-5.2,7.5-13.5,12.2-13.3c4.4,0.1,12.6,8.2,12.8,12.6
		C94.1,209.2,87.2,215.8,80.6,215.9z"/>
</g>
</svg>
