<?xml version="1.0" encoding="utf-8"?>
<!-- Generator: Adobe Illustrator 23.0.2, SVG Export Plug-In . SVG Version: 6.00 Build 0)  -->
<svg version="1.1" id="Layer_1" xmlns="http://www.w3.org/2000/svg" xmlns:xlink="http://www.w3.org/1999/xlink" x="0px" y="0px"
	 viewBox="0 0 260.4 187.5" style="enable-background:new 0 0 260.4 187.5;" xml:space="preserve">
<path style="fill:#A8BECF;" d="M176.9,117.2c-6.9,12.8-12.5,23.3-18.2,33.8c-1.7,3.2-3.9,6.2-5.4,9.6c-13.4,29.4-50.5,32.4-71.1,20.3
	c-5.5-3.2-11-6.3-15.2-11.2c-3.1-3.7-6.8-4.5-11.5-4.3c-31.5,1.3-58-28.4-55.3-59c2.2-25.1,21.9-43.8,43.7-48.8
	c5.3-1.2,8.8-3.2,12.2-7.3c12.6-15.2,27.4-26.5,48-29.7c16.5-2.6,30.9,1.7,44.9,9.1C158,34.2,164.5,42,173.4,48
	c-19.5,22.7-38.8,45.3-59.3,69.2C135.3,117.2,155,117.2,176.9,117.2z"/>
<path style="fill:#FEBC05;" d="M242.6,0c1,3.9-1.2,5.7-2.6,7.9c-12.2,18.3-24.1,36.8-33.7,56.5c-0.1,0.3-0.3,0.6-0.4,0.9
	c-1.3,3.7-7.2,6.5-5.1,10.1c2.6,4.4,8.5,1.6,12.9,1.8c7.6,0.2,15.3-0.3,23-0.4c3.2,0,6.5-0.5,11.1,1.4
	c-29.1,37.3-59.2,72.6-88.6,108.5c-0.8-4.5,2-7.6,3.8-10.9c11.1-20.5,22.3-40.9,33.4-61.4c0.8-1.5,1.6-2.9,2.2-4.5
	c2.6-6.4,1.2-8.8-5.7-8.7c-9.6,0.1-19.1,2.9-28.8,1.9c-4.9-0.5-9.9-0.1-15.1-2.3C179.4,66.1,212.2,34.1,242.6,0z"/>
<path style="fill:#B5C8DF;" d="M213.9,146.7c14.8-18.2,28.6-35.1,43.5-53.4c3.8,13.3,5,25-2.4,35.3C245.5,141.8,232.6,148.9,213.9,146.7z"/>
</svg>
